# xmcd
#
# Track frame offsets: 
#        150
#        14704
#        31129
#        49817
#        61599
#        73692
#        88469
#        104992
#        128059
#        144638
#        159795
#        172428
#        185730
#
# Disc length: 2931 seconds
#
# Revision: 0
# Processed by: cddbd v1.5.1PL0 Copyright (c) Steve Scherf et al.
# Submitted via: ExactAudioCopy v0.95a4
#
DISCID=c40b710d
DTITLE=Landlord - Joe Louis Trains Here
DYEAR=2005
DGENRE=Countrypop
TTITLE0=thought you were a good girl
TTITLE1=if i could reach that far
TTITLE2=snowball
TTITLE3=laughter behind my back
TTITLE4=one hundred years from now
TTITLE5=i still dream about you
TTITLE6=like a hurricane
TTITLE7=on the other side
TTITLE8=blanket
TTITLE9=new right hand
TTITLE10=spotless heart
TTITLE11=who stole your summer
TTITLE12=forever your love
EXTD=
EXTT0=
EXTT1=
EXTT2=
EXTT3=
EXTT4=
EXTT5=
EXTT6=
EXTT7=
EXTT8=
EXTT9=
EXTT10=
EXTT11=
EXTT12=
PLAYORDER=
